<mxfile host="65bd71144e">
    <diagram id="5u3gFAMTTsQxKGInY7Ke" name="Page-1">
        <mxGraphModel dx="980" dy="438" grid="1" gridSize="10" guides="1" tooltips="1" connect="1" arrows="1" fold="1" page="1" pageScale="1" pageWidth="850" pageHeight="1100" math="0" shadow="0">
            <root>
                <mxCell id="0"/>
                <mxCell id="1" parent="0"/>
                <mxCell id="2" value="&lt;br&gt;" style="whiteSpace=wrap;html=1;" parent="1" vertex="1">
                    <mxGeometry x="90" y="130" width="480" height="380" as="geometry"/>
                </mxCell>
                <mxCell id="3" value="" style="whiteSpace=wrap;html=1;align=left;" parent="1" vertex="1">
                    <mxGeometry x="110" y="160" width="170" height="210" as="geometry"/>
                </mxCell>
                <mxCell id="4" value="&lt;font style=&quot;font-size: 9px&quot;&gt;Star Img&lt;/font&gt;" style="whiteSpace=wrap;html=1;" parent="1" vertex="1">
                    <mxGeometry x="220" y="170" width="55" height="25" as="geometry"/>
                </mxCell>
                <mxCell id="6" value="Div Rating Panel" style="text;html=1;resizable=0;autosize=1;align=center;verticalAlign=middle;points=[];fillColor=none;strokeColor=none;rounded=0;" parent="1" vertex="1">
                    <mxGeometry x="145" y="140" width="100" height="20" as="geometry"/>
                </mxCell>
                <mxCell id="8" value="&lt;font style=&quot;font-size: 9px&quot;&gt;H3 or H4 : calulate star Ave&lt;/font&gt;" style="whiteSpace=wrap;html=1;" parent="1" vertex="1">
                    <mxGeometry x="120" y="200" width="140" height="30" as="geometry"/>
                </mxCell>
                <mxCell id="9" value="&lt;font style=&quot;font-size: 9px&quot;&gt;div: % reviews reccomend&lt;/font&gt;" style="whiteSpace=wrap;html=1;" parent="1" vertex="1">
                    <mxGeometry x="120" y="240" width="150" height="20" as="geometry"/>
                </mxCell>
                <mxCell id="11" value="" style="whiteSpace=wrap;html=1;align=left;" parent="1" vertex="1">
                    <mxGeometry x="330" y="150" width="220" height="330" as="geometry"/>
                </mxCell>
                <mxCell id="13" value="&lt;font style=&quot;font-size: 9px&quot;&gt;Review Tile&lt;/font&gt;" style="whiteSpace=wrap;html=1;" parent="1" vertex="1">
                    <mxGeometry x="370" y="195" width="140" height="40" as="geometry"/>
                </mxCell>
                <mxCell id="14" value="&lt;font style=&quot;font-size: 9px&quot;&gt;Review Tile&amp;nbsp;&lt;/font&gt;" style="whiteSpace=wrap;html=1;" parent="1" vertex="1">
                    <mxGeometry x="370" y="245" width="140" height="40" as="geometry"/>
                </mxCell>
                <mxCell id="17" value="&lt;font style=&quot;font-size: 9px&quot;&gt;More Reviews Button&lt;br&gt;&lt;/font&gt;" style="whiteSpace=wrap;html=1;" parent="1" vertex="1">
                    <mxGeometry x="370" y="420" width="140" height="20" as="geometry"/>
                </mxCell>
                <mxCell id="19" value="Reviiew Bar Plot" style="whiteSpace=wrap;html=1;" parent="1" vertex="1">
                    <mxGeometry x="120" y="270" width="150" height="90" as="geometry"/>
                </mxCell>
                <mxCell id="20" value="&lt;font style=&quot;font-size: 9px&quot;&gt;Review Search Bar&lt;/font&gt;" style="whiteSpace=wrap;html=1;" parent="1" vertex="1">
                    <mxGeometry x="340" y="160" width="140" height="17.5" as="geometry"/>
                </mxCell>
                <mxCell id="21" value="&lt;font style=&quot;font-size: 9px&quot;&gt;Search Btn&lt;/font&gt;" style="whiteSpace=wrap;html=1;" parent="1" vertex="1">
                    <mxGeometry x="490" y="160" width="50" height="20" as="geometry"/>
                </mxCell>
                <mxCell id="26" value="&lt;font size=&quot;1&quot;&gt;Create a Review&lt;/font&gt;" style="whiteSpace=wrap;html=1;" parent="1" vertex="1">
                    <mxGeometry x="370" y="450" width="140" height="20" as="geometry"/>
                </mxCell>
                <mxCell id="27" value="" style="whiteSpace=wrap;html=1;" parent="1" vertex="1">
                    <mxGeometry x="630" y="570" width="200" height="105" as="geometry"/>
                </mxCell>
                <mxCell id="28" value="New Review Pop out form" style="text;html=1;resizable=0;autosize=1;align=center;verticalAlign=middle;points=[];fillColor=none;strokeColor=none;rounded=0;fontSize=9;" parent="1" vertex="1">
                    <mxGeometry x="670" y="550" width="120" height="20" as="geometry"/>
                </mxCell>
                <mxCell id="29" value="&lt;font style=&quot;font-size: 9px&quot;&gt;Text Area: Review&lt;/font&gt;" style="whiteSpace=wrap;html=1;" parent="1" vertex="1">
                    <mxGeometry x="660" y="620" width="140" height="40" as="geometry"/>
                </mxCell>
                <mxCell id="30" value="&lt;font style=&quot;font-size: 9px&quot;&gt;Review Tile&lt;/font&gt;" style="whiteSpace=wrap;html=1;" parent="1" vertex="1">
                    <mxGeometry x="370" y="295" width="140" height="40" as="geometry"/>
                </mxCell>
                <mxCell id="31" value="" style="whiteSpace=wrap;html=1;" parent="1" vertex="1">
                    <mxGeometry x="595" y="200" width="230" height="320" as="geometry"/>
                </mxCell>
                <mxCell id="33" value="" style="edgeStyle=none;html=1;fontSize=9;" parent="1" source="32" target="31" edge="1">
                    <mxGeometry relative="1" as="geometry"/>
                </mxCell>
                <mxCell id="32" value="Review Tile&amp;nbsp;" style="text;html=1;resizable=0;autosize=1;align=center;verticalAlign=middle;points=[];fillColor=none;strokeColor=none;rounded=0;fontSize=9;" parent="1" vertex="1">
                    <mxGeometry x="670" y="160" width="60" height="20" as="geometry"/>
                </mxCell>
                <mxCell id="34" value="&lt;font style=&quot;font-size: 9px&quot;&gt;Star Rating&lt;/font&gt;" style="whiteSpace=wrap;html=1;" parent="1" vertex="1">
                    <mxGeometry x="595" y="210" width="65" height="20" as="geometry"/>
                </mxCell>
                <mxCell id="35" value="&lt;font size=&quot;1&quot;&gt;Date of Review&lt;/font&gt;" style="whiteSpace=wrap;html=1;" parent="1" vertex="1">
                    <mxGeometry x="720" y="230" width="80" height="10" as="geometry"/>
                </mxCell>
                <mxCell id="36" value="&lt;font style=&quot;font-size: 9px&quot;&gt;Review Summary&lt;/font&gt;" style="whiteSpace=wrap;html=1;" parent="1" vertex="1">
                    <mxGeometry x="620" y="285" width="170" height="10" as="geometry"/>
                </mxCell>
                <mxCell id="37" value="&lt;font style=&quot;font-size: 9px&quot;&gt;Review Body&lt;/font&gt;" style="whiteSpace=wrap;html=1;" parent="1" vertex="1">
                    <mxGeometry x="620" y="307.5" width="170" height="25" as="geometry"/>
                </mxCell>
                <mxCell id="38" value="&lt;font size=&quot;1&quot;&gt;Thumbnail&amp;nbsp;&lt;/font&gt;&lt;span style=&quot;color: rgba(0 , 0 , 0 , 0) ; font-family: monospace ; font-size: 0px&quot;&gt;%3CmxGraphModel%3E%3Croot%3E%3CmxCell%20id%3D%220%22%2F%3E%3CmxCell%20id%3D%221%22%20parent%3D%220%22%2F%3E%3CmxCell%20id%3D%222%22%20value%3D%22%26lt%3Bfont%20style%3D%26quot%3Bfont-size%3A%209px%26quot%3B%26gt%3BReview%20Body%26lt%3B%2Ffont%26gt%3B%22%20style%3D%22whiteSpace%3Dwrap%3Bhtml%3D1%3B%22%20vertex%3D%221%22%20parent%3D%221%22%3E%3CmxGeometry%20x%3D%22620%22%20y%3D%22285%22%20width%3D%22170%22%20height%3D%2225%22%20as%3D%22geometry%22%2F%3E%3C%2FmxCell%3E%3C%2Froot%3E%3C%2FmxGraphModel%3E&lt;/span&gt;&lt;font size=&quot;1&quot;&gt;&lt;br&gt;Button&amp;nbsp;&lt;/font&gt;" style="whiteSpace=wrap;html=1;" parent="1" vertex="1">
                    <mxGeometry x="605" y="450" width="70" height="40" as="geometry"/>
                </mxCell>
                <mxCell id="40" value="&lt;font size=&quot;1&quot;&gt;Modal Window showing&amp;nbsp; full resolution image&lt;/font&gt;" style="whiteSpace=wrap;html=1;" parent="1" vertex="1">
                    <mxGeometry x="465" y="570" width="130" height="77.5" as="geometry"/>
                </mxCell>
                <mxCell id="41" value="&lt;font size=&quot;1&quot;&gt;Username&amp;nbsp;&lt;br&gt;verified purchse&amp;nbsp;&lt;br&gt;&lt;/font&gt;" style="whiteSpace=wrap;html=1;" parent="1" vertex="1">
                    <mxGeometry x="720" y="245" width="80" height="25" as="geometry"/>
                </mxCell>
                <mxCell id="42" value="&lt;font style=&quot;font-size: 9px&quot;&gt;Reccomend check&lt;/font&gt;" style="whiteSpace=wrap;html=1;" parent="1" vertex="1">
                    <mxGeometry x="620" y="256.25" width="80" height="17.5" as="geometry"/>
                </mxCell>
                <mxCell id="43" value="&lt;font size=&quot;1&quot;&gt;Thumbnail&amp;nbsp;&lt;/font&gt;&lt;span style=&quot;color: rgba(0 , 0 , 0 , 0) ; font-family: monospace ; font-size: 0px&quot;&gt;%3CmxGraphModel%3E%3Croot%3E%3CmxCell%20id%3D%220%22%2F%3E%3CmxCell%20id%3D%221%22%20parent%3D%220%22%2F%3E%3CmxCell%20id%3D%222%22%20value%3D%22%26lt%3Bfont%20style%3D%26quot%3Bfont-size%3A%209px%26quot%3B%26gt%3BReview%20Body%26lt%3B%2Ffont%26gt%3B%22%20style%3D%22whiteSpace%3Dwrap%3Bhtml%3D1%3B%22%20vertex%3D%221%22%20parent%3D%221%22%3E%3CmxGeometry%20x%3D%22620%22%20y%3D%22285%22%20width%3D%22170%22%20height%3D%2225%22%20as%3D%22geometry%22%2F%3E%3C%2FmxCell%3E%3C%2Froot%3E%3C%2FmxGraphModel%3E&lt;/span&gt;&lt;font size=&quot;1&quot;&gt;&lt;br&gt;Button&amp;nbsp;&lt;/font&gt;" style="whiteSpace=wrap;html=1;" parent="1" vertex="1">
                    <mxGeometry x="680" y="450" width="70" height="40" as="geometry"/>
                </mxCell>
                <mxCell id="44" value="&lt;font style=&quot;font-size: 9px&quot;&gt;Vencfor: Response to Review&lt;/font&gt;" style="whiteSpace=wrap;html=1;" parent="1" vertex="1">
                    <mxGeometry x="620" y="340" width="170" height="10" as="geometry"/>
                </mxCell>
                <mxCell id="45" value="&lt;font style=&quot;font-size: 9px&quot;&gt;Rating helpfulness&lt;/font&gt;" style="whiteSpace=wrap;html=1;" parent="1" vertex="1">
                    <mxGeometry x="620" y="370" width="80" height="17.5" as="geometry"/>
                </mxCell>
                <mxCell id="47" value="&lt;font style=&quot;font-size: 9px&quot;&gt;Rating helpfulness&lt;/font&gt;" style="whiteSpace=wrap;html=1;" parent="1" vertex="1">
                    <mxGeometry x="625" y="402.5" width="150" height="17.5" as="geometry"/>
                </mxCell>
            </root>
        </mxGraphModel>
    </diagram>
    <diagram id="9jFau3tJmCElTV8PMuu6" name="Page-2">
        <mxGraphModel dx="980" dy="438" grid="1" gridSize="10" guides="1" tooltips="1" connect="1" arrows="1" fold="1" page="1" pageScale="1" pageWidth="850" pageHeight="1100" math="0" shadow="0">
            <root>
                <mxCell id="U3IfLG0DOvkm6qD5TL8k-0"/>
                <mxCell id="U3IfLG0DOvkm6qD5TL8k-1" parent="U3IfLG0DOvkm6qD5TL8k-0"/>
                <mxCell id="U3IfLG0DOvkm6qD5TL8k-25" style="edgeStyle=none;html=1;exitX=0.5;exitY=1;exitDx=0;exitDy=0;entryX=0.5;entryY=0;entryDx=0;entryDy=0;" parent="U3IfLG0DOvkm6qD5TL8k-1" source="U3IfLG0DOvkm6qD5TL8k-2" target="U3IfLG0DOvkm6qD5TL8k-3" edge="1">
                    <mxGeometry relative="1" as="geometry"/>
                </mxCell>
                <mxCell id="U3IfLG0DOvkm6qD5TL8k-28" style="edgeStyle=none;html=1;exitX=1;exitY=1;exitDx=0;exitDy=0;entryX=0;entryY=0;entryDx=0;entryDy=0;" parent="U3IfLG0DOvkm6qD5TL8k-1" source="U3IfLG0DOvkm6qD5TL8k-2" target="U3IfLG0DOvkm6qD5TL8k-21" edge="1">
                    <mxGeometry relative="1" as="geometry"/>
                </mxCell>
                <mxCell id="U3IfLG0DOvkm6qD5TL8k-29" style="edgeStyle=none;html=1;exitX=1;exitY=0.5;exitDx=0;exitDy=0;entryX=0;entryY=0;entryDx=0;entryDy=0;" parent="U3IfLG0DOvkm6qD5TL8k-1" source="U3IfLG0DOvkm6qD5TL8k-2" target="U3IfLG0DOvkm6qD5TL8k-9" edge="1">
                    <mxGeometry relative="1" as="geometry"/>
                </mxCell>
                <mxCell id="U3IfLG0DOvkm6qD5TL8k-30" style="edgeStyle=none;html=1;exitX=0;exitY=1;exitDx=0;exitDy=0;" parent="U3IfLG0DOvkm6qD5TL8k-1" source="U3IfLG0DOvkm6qD5TL8k-2" target="U3IfLG0DOvkm6qD5TL8k-4" edge="1">
                    <mxGeometry relative="1" as="geometry"/>
                </mxCell>
                <mxCell id="U3IfLG0DOvkm6qD5TL8k-2" value="Index" style="ellipse;whiteSpace=wrap;html=1;" parent="U3IfLG0DOvkm6qD5TL8k-1" vertex="1">
                    <mxGeometry x="415" y="80" width="60" height="60" as="geometry"/>
                </mxCell>
                <mxCell id="U3IfLG0DOvkm6qD5TL8k-20" style="edgeStyle=none;html=1;exitX=1;exitY=0;exitDx=0;exitDy=0;entryX=0;entryY=1;entryDx=0;entryDy=0;" parent="U3IfLG0DOvkm6qD5TL8k-1" source="U3IfLG0DOvkm6qD5TL8k-3" target="U3IfLG0DOvkm6qD5TL8k-5" edge="1">
                    <mxGeometry relative="1" as="geometry"/>
                </mxCell>
                <mxCell id="U3IfLG0DOvkm6qD5TL8k-3" value="review&lt;br&gt;list" style="ellipse;whiteSpace=wrap;html=1;" parent="U3IfLG0DOvkm6qD5TL8k-1" vertex="1">
                    <mxGeometry x="470" y="310" width="60" height="60" as="geometry"/>
                </mxCell>
                <mxCell id="U3IfLG0DOvkm6qD5TL8k-31" style="edgeStyle=none;html=1;exitX=0;exitY=1;exitDx=0;exitDy=0;" parent="U3IfLG0DOvkm6qD5TL8k-1" source="U3IfLG0DOvkm6qD5TL8k-4" target="U3IfLG0DOvkm6qD5TL8k-13" edge="1">
                    <mxGeometry relative="1" as="geometry"/>
                </mxCell>
                <mxCell id="U3IfLG0DOvkm6qD5TL8k-4" value="Sort Optons" style="ellipse;whiteSpace=wrap;html=1;" parent="U3IfLG0DOvkm6qD5TL8k-1" vertex="1">
                    <mxGeometry x="380" y="210" width="60" height="60" as="geometry"/>
                </mxCell>
                <mxCell id="U3IfLG0DOvkm6qD5TL8k-5" value="review&lt;br&gt;tile" style="ellipse;whiteSpace=wrap;html=1;" parent="U3IfLG0DOvkm6qD5TL8k-1" vertex="1">
                    <mxGeometry x="590" y="235" width="60" height="60" as="geometry"/>
                </mxCell>
                <mxCell id="U3IfLG0DOvkm6qD5TL8k-9" value="Ratings&lt;br&gt;Summary" style="ellipse;whiteSpace=wrap;html=1;" parent="U3IfLG0DOvkm6qD5TL8k-1" vertex="1">
                    <mxGeometry x="560" y="130" width="60" height="60" as="geometry"/>
                </mxCell>
                <mxCell id="U3IfLG0DOvkm6qD5TL8k-19" style="edgeStyle=none;html=1;exitX=0.5;exitY=1;exitDx=0;exitDy=0;entryX=0.5;entryY=0;entryDx=0;entryDy=0;" parent="U3IfLG0DOvkm6qD5TL8k-1" source="U3IfLG0DOvkm6qD5TL8k-11" target="U3IfLG0DOvkm6qD5TL8k-13" edge="1">
                    <mxGeometry relative="1" as="geometry"/>
                </mxCell>
                <mxCell id="U3IfLG0DOvkm6qD5TL8k-11" value="new&amp;nbsp;&lt;br&gt;review" style="ellipse;whiteSpace=wrap;html=1;" parent="U3IfLG0DOvkm6qD5TL8k-1" vertex="1">
                    <mxGeometry x="240" y="140" width="60" height="60" as="geometry"/>
                </mxCell>
                <mxCell id="U3IfLG0DOvkm6qD5TL8k-16" style="edgeStyle=none;html=1;exitX=1;exitY=0.75;exitDx=0;exitDy=0;entryX=0;entryY=0.5;entryDx=0;entryDy=0;" parent="U3IfLG0DOvkm6qD5TL8k-1" source="U3IfLG0DOvkm6qD5TL8k-13" target="U3IfLG0DOvkm6qD5TL8k-3" edge="1">
                    <mxGeometry relative="1" as="geometry"/>
                </mxCell>
                <mxCell id="U3IfLG0DOvkm6qD5TL8k-13" value="sever&amp;nbsp;" style="whiteSpace=wrap;html=1;" parent="U3IfLG0DOvkm6qD5TL8k-1" vertex="1">
                    <mxGeometry x="210" y="260" width="120" height="140" as="geometry"/>
                </mxCell>
                <mxCell id="U3IfLG0DOvkm6qD5TL8k-21" value="Product&amp;nbsp;&lt;br&gt;break down" style="ellipse;whiteSpace=wrap;html=1;" parent="U3IfLG0DOvkm6qD5TL8k-1" vertex="1">
                    <mxGeometry x="485" y="170" width="60" height="60" as="geometry"/>
                </mxCell>
                <mxCell id="U3IfLG0DOvkm6qD5TL8k-24" style="edgeStyle=none;html=1;exitX=1;exitY=1;exitDx=0;exitDy=0;entryX=0;entryY=0;entryDx=0;entryDy=0;" parent="U3IfLG0DOvkm6qD5TL8k-1" source="U3IfLG0DOvkm6qD5TL8k-22" target="U3IfLG0DOvkm6qD5TL8k-11" edge="1">
                    <mxGeometry relative="1" as="geometry"/>
                </mxCell>
                <mxCell id="U3IfLG0DOvkm6qD5TL8k-22" value="new review modal" style="ellipse;whiteSpace=wrap;html=1;" parent="U3IfLG0DOvkm6qD5TL8k-1" vertex="1">
                    <mxGeometry x="140" y="80" width="60" height="60" as="geometry"/>
                </mxCell>
            </root>
        </mxGraphModel>
    </diagram>
</mxfile>